HIERARCHY
ROOT Bip001_Pelvis
{
  OFFSET 7.937 94.8971 -8.5489
  CHANNELS 6 Xposition Yposition Zposition Zrotation Xrotation Yrotation
  JOINT Bip001_Spine
  {
    OFFSET 1.44608e-005 10.4157 -0.0118244
    CHANNELS 3 Zrotation Xrotation Yrotation
    JOINT Bip001_L_Thigh
    {
      OFFSET 11.2582 -10.4157 0.0118432
      CHANNELS 3 Zrotation Xrotation Yrotation
      JOINT Bip001_L_Calf
      {
        OFFSET -0.720717 -44.8687 0.366937
        CHANNELS 3 Zrotation Xrotation Yrotation
        JOINT Bip001_L_Foot
        {
          OFFSET -0.664439 -41.3745 -3.62995
          CHANNELS 3 Zrotation Xrotation Yrotation
          JOINT Bip001_L_Toe0
          {
            OFFSET 0.0541047 -10.4146 13.4033
            CHANNELS 3 Zrotation Xrotation Yrotation
            End Site
            {
              OFFSET -1.04503e-005 0 7.70137
            }
          }
        }
      }
    }
    JOINT Bip001_R_Thigh
    {
      OFFSET -11.2582 -10.4156 0.0118122
      CHANNELS 3 Zrotation Xrotation Yrotation
      JOINT Bip001_R_Calf
      {
        OFFSET 0.72059 -44.8687 0.36676
        CHANNELS 3 Zrotation Xrotation Yrotation
        JOINT Bip001_R_Foot
        {
          OFFSET 0.664321 -41.3745 -3.62979
          CHANNELS 3 Zrotation Xrotation Yrotation
          JOINT Bip001_R_Toe0
          {
            OFFSET -0.05417 -10.4146 13.4033
            CHANNELS 3 Zrotation Xrotation Yrotation
            End Site
            {
              OFFSET -1.04873e-005 0 7.70137
            }
          }
        }
      }
    }
    JOINT Bip001_Spine1
    {
      OFFSET 1.90638e-005 14.8539 1.10727
      CHANNELS 3 Zrotation Xrotation Yrotation
      JOINT Bip001_Spine2
      {
        OFFSET 2.28934e-005 14.7848 -1.7233
        CHANNELS 3 Zrotation Xrotation Yrotation
        JOINT Bip001_Neck
        {
          OFFSET 2.24514e-005 15.6905 -0.498826
          CHANNELS 3 Zrotation Xrotation Yrotation
          JOINT Bip001_L_Clavicle
          {
            OFFSET 6.17691 -0.000591152 0.00852867
            CHANNELS 3 Zrotation Xrotation Yrotation
            JOINT Bip001_L_UpperArm
            {
              OFFSET 11.773 -0.0611878 0.00197697
              CHANNELS 3 Zrotation Xrotation Yrotation
              JOINT Bip001_L_Forearm
              {
                OFFSET 26.4515 0.0817568 -2.19579
                CHANNELS 3 Zrotation Xrotation Yrotation
                JOINT Bip001_L_Hand
                {
                  OFFSET 32.8677 0.156744 1.67112
                  CHANNELS 3 Zrotation Xrotation Yrotation
                  JOINT Bip001_L_Finger0
                  {
                    OFFSET 6.16268 -2.25226 6.01674
                    CHANNELS 3 Zrotation Xrotation Yrotation
                    End Site
                    {
                      OFFSET 4.30499 -1.46662 0.618148
                    }
                  }
                  JOINT Bip001_L_Finger1
                  {
                    OFFSET 11.2957 -0.718374 -0.201963
                    CHANNELS 3 Zrotation Xrotation Yrotation
                    End Site
                    {
                      OFFSET 6.31952 -0.405163 -0.0802303
                    }
                  }
                }
              }
            }
          }
          JOINT Bip001_R_Clavicle
          {
            OFFSET -6.17691 -0.000574027 0.00851165
            CHANNELS 3 Zrotation Xrotation Yrotation
            JOINT Bip001_R_UpperArm
            {
              OFFSET -11.773 -0.0611516 0.00194365
              CHANNELS 3 Zrotation Xrotation Yrotation
              JOINT Bip001_R_Forearm
              {
                OFFSET -26.4514 0.0822334 -2.19736
                CHANNELS 3 Zrotation Xrotation Yrotation
                JOINT Bip001_R_Hand
                {
                  OFFSET -32.8677 0.156817 1.67144
                  CHANNELS 3 Zrotation Xrotation Yrotation
                  JOINT Bip001_R_Finger0
                  {
                    OFFSET -6.1627 -2.25224 6.0167
                    CHANNELS 3 Zrotation Xrotation Yrotation
                    End Site
                    {
                      OFFSET -4.30499 -1.46662 0.618134
                    }
                  }
                  JOINT Bip001_R_Finger1
                  {
                    OFFSET -11.2958 -0.718344 -0.201994
                    CHANNELS 3 Zrotation Xrotation Yrotation
                    End Site
                    {
                      OFFSET -6.31952 -0.405146 -0.0802475
                    }
                  }
                }
              }
            }
          }
          JOINT Bip001_Head
          {
            OFFSET 1.11782e-005 11.4912 2.09908
            CHANNELS 3 Zrotation Xrotation Yrotation
            End Site
            {
              OFFSET 2.95144e-005 21.2823 -2.83069e-005
            }
          }
        }
      }
    }
  }
}
MOTION
Frames:	16
Frame Time:	0.04
9.47329 95.3439 -7.32072 -0.474267 -3.82859 -3.9943 -0.0118356 1.31792 -0.415619 4.94016 -4.17246 9.47232 -1.88661 15.9151 1.05687 -1.93941 -8.33922 2.91566 0.761742 -9.73484 0.13186 -8.45288 -4.15625 0.879512 -0.663634 14.3447 6.26897 1.5547 -7.47498 -8.80631 -0.13068 -11.7696 0.301958 -0.037738 2.63599 -0.854247 -0.0376535 2.63598 -0.854205 -1.99704 3.04907 0.651005 -28.6541 3.12165 -12.8223 -47.3413 41.5848 4.37605 14.7551 0.289786 -29.7604 -1.16693 -0.0802605 -2.11876 3.18055e-015 6.36111e-015 1.59028e-015 6.36111e-015 6.36111e-015 4.77083e-015 32.6271 2.46049 11.743 55.81 22.9148 -21.2727 -9.63813 -14.4602 33.3168 2.47525 2.93586 -15.2114 2.98177e-016 -6.36111e-015 -1.59028e-015 -1.98785e-016 -6.36111e-015 -1.59028e-015 -1.47906 2.74682 0.362479 
9.63848 95.3187 -7.29164 -0.432972 -3.69137 -4.07381 -0.0121412 1.28527 -0.412548 4.81312 -4.30919 9.84289 -1.79647 16.0559 0.86313 -1.85268 -8.45611 2.83 0.761742 -9.73484 0.13186 -8.55452 -4.30464 0.677936 -0.833835 14.4095 6.30247 1.76006 -7.51289 -8.51634 -0.133416 -11.771 0.288511 -0.057296 2.57074 -0.82963 -0.0576635 2.57074 -0.829833 -2.35379 3.18715 1.02417 -28.4037 3.1277 -13.0453 -47.6301 41.6411 4.88183 14.9726 1.03373 -29.3425 -1.55956 -0.0734839 -2.11058 -6.36111e-015 3.18055e-015 6.36111e-015 -6.36111e-015 6.36111e-015 6.36111e-015 32.6876 2.11474 11.5479 55.1161 19.4615 -21.5679 -12.2725 -12.9234 40.6786 -2.57051 4.3573 -14.7845 -1.59028e-015 0 3.18055e-015 -3.18055e-015 0 3.18055e-015 -1.45551 2.72147 0.609355 
9.71689 95.2798 -7.27027 -0.411775 -3.58678 -3.88617 -0.0248203 1.26503 -0.407741 4.76519 -4.58443 9.13415 -1.92596 16.3599 1.37041 -1.80745 -8.60378 2.9121 0.754956 -9.73859 0.09169 -8.55646 -4.41393 -0.84602 -1.34337 14.5894 7.03803 1.96653 -7.63607 -7.86436 -0.105126 -11.793 0.321954 -0.0951343 2.53041 -0.823618 -0.0951343 2.53041 -0.823617 -2.54892 3.35658 1.31763 -28.1686 3.00239 -13.1074 -47.9273 41.7233 5.2616 15.2168 1.85214 -28.6846 -2.24456 -0.0874995 -2.20383 -3.18055e-015 0 1.59028e-015 -3.18055e-015 0 -0 32.7207 1.87127 11.6137 53.775 15.6497 -21.6552 -17.3914 -8.45664 47.9664 -8.11285 5.23559 -12.3268 -3.18055e-015 3.18055e-015 3.18055e-015 -1.59028e-015 3.18056e-015 -0 -1.40555 2.57745 0.819592 
9.7912 95.2459 -7.26533 -0.301931 -3.44347 -3.38258 -0.0482492 1.24191 -0.390816 4.58272 -4.88888 9.04796 -1.71174 16.5212 0.8899 -1.79203 -8.64992 2.89132 0.765787 -9.71844 0.156039 -8.72986 -4.51058 -0.347519 -1.02583 14.8341 6.55215 1.88456 -7.843 -8.38629 -0.115376 -11.7805 0.265977 -0.141787 2.48431 -0.782284 -0.141841 2.48431 -0.782281 -2.7064 3.28044 1.40679 -28.1582 3.08154 -13.0136 -48.0189 41.7077 5.68842 15.3697 2.55304 -28.0517 -3.06272 -0.124242 -2.16845 4.41391e-032 3.18055e-015 -7.95139e-016 -4.41391e-032 -3.18056e-015 -7.95139e-016 32.6466 1.84943 11.49 51.6183 10.809 -21.4984 -22.0727 -4.19054 57.2348 -13.6893 6.20052 -9.68208 8.82781e-031 7.95139e-015 -6.36111e-015 4.41391e-031 7.95139e-015 -3.18055e-015 -1.43919 2.83704 0.867636 
9.82534 95.2114 -7.26427 -0.19135 -3.27783 -2.52508 -0.0763907 1.21942 -0.373658 4.56573 -5.29837 8.99136 -1.72914 16.7665 0.431994 -1.67871 -8.64144 2.62339 0.757416 -9.73172 0.106309 -8.79724 -4.51996 -0.577211 -0.997249 15.0575 6.48778 1.7793 -8.07806 -8.88936 -0.050344 -11.7759 0.17089 -0.187921 2.43947 -0.746175 -0.187908 2.43947 -0.746585 -2.84505 3.24057 1.52394 -28.0308 3.1134 -12.9475 -48.0449 41.4202 5.83815 15.2743 3.43185 -27.2561 -3.13216 -0.159698 -1.99228 -3.18055e-015 3.18055e-015 -0 0 3.18056e-015 -0 32.5789 1.83087 11.4817 48.6386 5.28148 -20.9283 -27.3543 -0.000219359 67.1496 -17.2614 6.27026 -6.87234 -9.54166e-015 3.97569e-015 -0 -7.95139e-015 3.18056e-015 3.18055e-015 -1.32132 2.96271 0.911446 
9.89209 95.1647 -7.2901 0.116778 -3.07985 -1.43771 -0.150251 1.19512 -0.303571 4.27211 -5.7449 8.93565 -1.51432 16.8646 -0.246557 -1.62744 -8.51203 2.24682 0.75008 -9.74447 0.0758354 -9.08269 -4.64306 -0.91732 -0.890964 15.5706 6.26944 1.68804 -8.49213 -9.39449 -0.0096763 -11.7585 0.0659258 -0.328893 2.3911 -0.604989 -0.328895 2.39111 -0.60499 -2.85639 3.1245 1.44706 -28.0223 3.17052 -12.8049 -48.0473 41.2463 6.01481 14.7388 2.83524 -26.6498 -3.24117 -0.157304 -1.72668 -9.54166e-015 3.18055e-015 -4.77083e-015 -6.36111e-015 0 -3.18055e-015 32.3715 1.99732 11.6423 45.2326 -0.707111 -19.8471 -33.1833 3.49976 77.152 -22.1548 7.21962 -4.65981 -1.19271e-015 -5.96354e-015 3.18055e-015 -3.57812e-015 -1.07344e-014 3.18055e-015 -1.29004 3.19792 0.828542 
9.90148 95.111 -7.30238 0.381317 -2.96062 0.0417885 -0.215889 1.18126 -0.243143 4.05025 -6.19972 10.2152 -0.851959 17.0898 -2.49106 -1.62606 -8.40714 1.65061 0.789422 -9.75443 0.0286384 -9.27088 -4.5517 -1.6606 -0.917722 16.0631 5.87731 1.67887 -8.95104 -9.70357 0.0217737 -11.7484 -0.00331343 -0.453241 2.36343 -0.483231 -0.453685 2.36344 -0.48285 -2.95502 3.19903 1.37811 -27.8724 3.05083 -12.7545 -48.0288 40.7843 6.12057 14.4994 2.92121 -26.2348 -3.39978 -0.173614 -1.46304 3.18055e-015 0 1.59028e-015 3.18055e-015 0 -0 32.1485 2.05944 12.1106 42.2587 -4.92025 -18.099 -39.8442 4.02559 85.8787 -27.0183 8.52845 -4.15923 1.59028e-015 5.36719e-015 3.18055e-015 7.95139e-016 3.97569e-015 3.18055e-015 -1.05213 3.20659 0.668246 
9.8626 95.0654 -7.37248 0.622646 -2.54887 1.95857 -0.276029 1.11444 -0.169941 3.80032 -7.061 7.17584 -1.3764 17.2656 -1.72046 -1.47096 -8.21105 2.02756 0.825133 -9.76097 0.0692652 -9.44518 -4.54812 -2.71468 -0.896528 16.469 5.31365 1.66325 -9.38559 -10.0307 0.0381919 -11.7355 -0.0699329 -0.570732 2.22971 -0.334678 -0.570732 2.22972 -0.334679 -3.02108 3.00562 1.21535 -27.8079 3.13027 -12.4857 -47.9641 40.2352 6.22869 14.7084 3.66689 -26.0692 -3.49848 -0.0981419 -1.9537 3.18055e-015 3.18055e-015 -0 6.36111e-015 -3.18056e-015 -0 31.9898 2.39385 12.4741 39.39 -5.4176 -15.5524 -43.2542 0.740243 92.0536 -32.1181 9.46733 -4.11573 -3.08973e-031 -5.56597e-015 -3.18055e-015 -1.54487e-031 -5.56597e-015 -1.59028e-015 -0.84717 3.50388 0.442336 
9.72039 94.9983 -7.49881 0.564434 -1.97231 4.32186 -0.314434 1.00009 -0.0845087 3.86561 -8.38035 5.60443 -1.41171 17.9669 -2.23661 -1.43092 -8.13411 1.6968 0.828311 -9.77587 0.0914233 -9.22608 -4.50886 -3.54649 -0.84941 16.7235 4.39412 1.54738 -9.74064 -10.6993 0.113143 -11.7276 -0.178036 -0.636968 2.00064 -0.163151 -0.636454 2.00064 -0.163105 -2.65454 2.97605 0.755884 -27.851 3.00278 -12.356 -48.5258 40.7163 6.9429 15.033 3.07386 -26.1393 -3.51238 -0.100611 -1.78928 3.18055e-015 -3.18055e-015 -0 -0 0 1.59028e-015 31.2555 2.69918 13.1045 36.2737 -5.82722 -11.7595 -47.4662 -3.50925 96.8188 -36.386 10.6281 -4.54494 -3.18055e-015 1.98785e-016 -1.98785e-016 -4.58633e-032 -1.88846e-015 -1.39149e-015 -0.95535 3.69933 0.136862 
9.45289 94.9076 -7.59492 0.631739 -1.27359 7.2004 -0.407936 0.860059 -0.0381835 3.79288 -9.77304 5.77476 -0.75287 18.5439 -4.58202 -1.53299 -7.90991 0.867679 0.827503 -9.79347 0.0930869 -8.97507 -4.58844 -4.05876 -0.749863 17.3422 3.33095 1.25759 -10.3828 -11.9798 0.222597 -11.6982 -0.369294 -0.805796 1.72036 -0.0686192 -0.805755 1.72036 -0.0687874 -2.07885 3.17579 0.323117 -28.2318 2.66284 -12.2388 -48.2642 39.6626 6.76121 15.0351 3.9524 -26.0881 -3.56239 -0.127249 -2.11766 3.18055e-015 3.18055e-015 -3.18055e-015 3.18055e-015 6.36111e-015 -3.18055e-015 29.8175 2.76598 14.0301 33.1739 -6.87321 -6.47704 -50.11 -7.02501 100.081 -40.1802 10.3229 -3.89733 -3.18055e-015 1.59028e-015 -0 -3.18055e-015 0 -0 -1.01138 3.45194 -0.094646 
9.12508 94.8497 -7.73855 0.548061 -0.52211 10.886 -0.462513 0.741807 -0.0359876 3.67918 -11.3804 4.5274 -0.476844 18.9501 -6.06974 -1.60124 -7.42984 -0.0245761 0.813683 -9.82085 0.0153379 -8.69298 -4.38652 -4.68765 -0.365225 17.5364 1.86744 0.903416 -10.9025 -13.5536 0.270054 -11.6452 -0.586804 -0.894412 1.48384 -0.0637252 -0.894412 1.48384 -0.0637257 -1.45841 2.82241 -0.3345 -28.8674 2.7061 -11.6139 -47.832 40.1232 6.69576 15.1957 3.6695 -26.5984 -3.7495 -0.0479966 -2.18717 -3.18055e-015 6.36111e-015 -0 -3.18055e-015 3.18056e-015 -0 27.3114 3.25188 15.0322 31.0975 -8.34081 0.825761 -51.5235 -9.24853 101.626 -43.5258 11.2464 -3.42047 -1.76556e-031 -3.18055e-015 -3.18055e-015 -1.76556e-031 -3.18056e-015 -3.18055e-015 -1.41151 3.62322 -0.43535 
8.66773 94.8503 -7.90665 0.325295 0.421319 14.7916 -0.544939 0.586628 0.113392 3.5731 -13.036 4.13002 0.0898587 18.9108 -8.02639 -1.82815 -6.59062 -1.59495 0.793584 -9.89107 -0.190916 -8.21075 -4.19139 -5.2747 0.0127379 17.3649 -0.0452012 0.574433 -11.246 -15.1176 0.288055 -11.5735 -0.810538 -1.03609 1.17213 0.236762 -1.03768 1.17213 0.236405 -0.743105 2.32513 -1.30418 -29.5013 2.83174 -11.0321 -47.5748 42.0205 7.1051 15.8595 2.45028 -27.5332 -4.1117 -0.218563 -1.54184 1.59028e-015 3.18055e-015 -1.59028e-015 -1.59028e-015 6.36111e-015 -0 24.5969 3.88555 16.1624 29.7071 -10.8551 8.92321 -54.0752 -10.1679 101.211 -46.4344 11.6083 -3.35948 1.59028e-015 3.18055e-015 -3.97569e-015 1.59028e-015 0 -2.38542e-015 -1.51022 4.05577 -1.12351 
8.31215 94.8882 -7.98717 0.301379 1.39779 18.6412 -0.761657 0.443444 0.423155 3.04716 -14.2777 3.86078 0.825803 18.1823 -9.96453 -2.10945 -5.44311 -3.36013 0.752256 -9.99034 -0.503719 -8.0072 -3.91938 -6.34349 0.431629 17.1599 -1.42297 0.185032 -11.6097 -16.7462 0.372704 -11.49 -1.12182 -1.43802 0.881399 0.85894 -1.43803 0.881407 0.85894 0.259385 1.67175 -2.47986 -30.0992 3.05995 -10.6032 -47.1904 41.9319 7.13452 16.2885 2.11798 -28.464 -3.92113 -0.159537 -1.50648 3.18055e-015 0 -1.59028e-015 4.77083e-015 0 -1.59028e-015 22.2646 4.71654 17.2167 27.7967 -13.3465 17.4464 -56.9595 -8.38538 97.8829 -48.9702 12.4125 -2.80594 -2.64834e-031 -6.36111e-015 -2.38542e-015 7.95139e-016 -3.18056e-015 -3.97569e-016 -1.56514 4.83544 -1.93185 
7.92871 94.9228 -8.20186 0.206638 2.53066 22.3691 -1.01364 0.290454 0.793559 2.5011 -15.6502 3.28018 1.18282 17.3409 -10.1452 -2.39002 -4.01544 -6.21374 0.685928 -10.1655 -1.03093 -7.95743 -4.09068 -6.60179 1.32575 17.2718 -2.48691 -0.706678 -11.9516 -19.3563 0.726861 -11.4023 -1.66745 -1.83963 0.567778 1.60581 -1.83963 0.567779 1.6058 1.13475 1.48894 -3.41381 -31.0026 2.97897 -10.508 -45.4054 38.6167 5.8148 16.0685 4.68872 -28.9987 -3.33638 0.0687333 -2.19365 -6.36111e-015 0 3.18055e-015 -6.36111e-015 -3.18056e-015 -0 20.8836 5.25685 18.614 24.4449 -16.8985 24.8326 -61.5052 -1.83592 89.9674 -51.0856 12.2532 -1.48574 -2.38542e-015 6.36111e-015 2.98177e-015 -2.78299e-015 3.18056e-015 3.57812e-015 -1.88431 4.96991 -2.49118 
7.49806 94.887 -8.31777 -0.0382857 3.33914 25.6177 -1.19932 0.191431 1.15279 2.3519 -16.9478 3.97187 1.32054 17.0813 -11.8939 -2.2964 -3.01463 -8.25855 0.63824 -10.3234 -1.49224 -7.5559 -4.35858 -6.21353 1.91573 17.6907 -3.21528 -1.67773 -12.3675 -22.3103 1.22358 -11.3121 -2.32654 -2.07852 0.361378 2.33161 -2.07601 0.361459 2.3317 1.43116 1.72326 -3.73425 -30.2046 2.47224 -10.2933 -46.4194 37.769 5.94078 16.3138 3.27088 -30.3098 -2.58443 0.110223 -2.06555 1.59028e-015 0 -9.54166e-015 3.53113e-031 3.18056e-015 -6.36111e-015 17.8072 4.63017 19.7271 19.9172 -13.0328 30.3462 -64.573 8.07746 71.2658 -36.472 12.9328 -9.57374 1.59028e-015 -3.18055e-015 -1.98785e-015 1.59028e-015 -4.77083e-015 -3.97569e-015 -1.58675 4.77358 -2.79395 
7.10125 94.8547 -8.24254 -0.219092 3.73918 28.9625 -1.17336 0.254275 1.45984 1.8871 -17.8065 3.55615 1.39436 16.6452 -13.6273 -2.31354 -2.18631 -9.6143 0.626983 -10.3663 -1.63509 -7.20959 -4.11005 -6.27584 2.29164 17.7464 -4.19784 -2.34106 -12.7209 -24.6369 1.54686 -11.2286 -2.83364 -1.99877 0.482724 2.9372 -1.99769 0.482711 2.93749 0.487034 2.00838 -4.28438 -29.8077 1.8598 -9.37856 -45.8676 38.4809 5.14988 16.2959 1.99715 -31.1042 -2.33161 -0.0230711 -1.74308 -3.53112e-031 6.36111e-015 3.18055e-015 -1.59028e-015 3.18056e-015 6.36111e-015 16.7964 3.77522 19.0721 29.3945 -25.086 29.4695 -57.0019 6.87401 76.6335 -38.5873 11.2587 -6.76572 1.59028e-015 -3.18055e-015 7.95139e-016 1.59028e-015 -3.18056e-015 7.95139e-016 -0.672858 3.82881 -3.87252 
